<?xml version="1.0" standalone="no"?>
<!DOCTYPE svg PUBLIC "-//W3C//DTD SVG 20010904//EN"
 "http://www.w3.org/TR/2001/REC-SVG-20010904/DTD/svg10.dtd">
<svg version="1.0" xmlns="http://www.w3.org/2000/svg"
 width="4574.000000pt" height="4574.000000pt" viewBox="0 0 4574.000000 4574.000000"
 preserveAspectRatio="xMidYMid meet">
<metadata>
Created by potrace 1.14, written by Peter Selinger 2001-2017
</metadata>
<g transform="translate(0.000000,4574.000000) scale(0.100000,-0.100000)"
fill="#000000" stroke="none">
<path d="M22275 37547 c-110 -59 -218 -118 -230 -127 -5 -4 -30 -19 -55 -32
-25 -14 -133 -76 -240 -138 -107 -62 -204 -118 -215 -124 -20 -12 -231 -132
-263 -151 -79 -46 -185 -107 -222 -127 -54 -31 -599 -345 -620 -358 -8 -5 -96
-55 -194 -112 -98 -57 -195 -112 -215 -124 -140 -82 -779 -451 -879 -508 -68
-39 -137 -79 -155 -90 -116 -67 -480 -277 -517 -298 -25 -14 -85 -49 -135 -78
-49 -29 -109 -63 -132 -76 -23 -13 -90 -52 -150 -87 -59 -35 -117 -69 -128
-75 -11 -6 -66 -38 -123 -72 -56 -33 -105 -60 -108 -60 -2 0 -21 -11 -42 -23
-47 -30 -339 -199 -411 -239 -30 -16 -79 -45 -108 -64 -29 -19 -55 -34 -57
-34 -4 0 -93 -51 -217 -124 -20 -11 -117 -67 -215 -124 -99 -57 -186 -107
-194 -112 -8 -6 -98 -58 -200 -116 -102 -58 -257 -148 -345 -199 -88 -51 -176
-102 -195 -113 -19 -11 -204 -117 -410 -237 -206 -120 -388 -225 -405 -235
-16 -9 -102 -59 -190 -110 -88 -51 -178 -103 -200 -115 -22 -12 -121 -70 -220
-127 -99 -58 -241 -140 -315 -183 -74 -43 -189 -110 -255 -148 -66 -38 -163
-94 -215 -125 -52 -30 -108 -62 -125 -72 -16 -10 -75 -44 -130 -75 -139 -80
-153 -88 -215 -125 -30 -18 -71 -42 -90 -53 -46 -26 -1426 -825 -1465 -848
-16 -10 -41 -24 -55 -32 -40 -21 -363 -208 -390 -226 -27 -17 -57 -35 -105
-60 -16 -9 -41 -24 -55 -32 -14 -9 -101 -60 -195 -114 -349 -202 -855 -497
-1042 -607 -84 -50 -155 -98 -158 -107 -3 -9 -7 -42 -10 -72 -2 -30 -7 -70
-10 -89 -3 -19 -8 -60 -10 -90 -3 -30 -7 -75 -9 -100 -3 -25 -7 -74 -11 -110
-3 -36 -8 -81 -10 -100 -3 -19 -7 -62 -10 -95 -6 -60 -8 -76 -20 -210 -3 -38
-8 -86 -10 -105 -8 -73 -20 -192 -30 -295 -3 -33 -7 -85 -10 -115 -3 -30 -7
-71 -10 -90 -2 -19 -7 -71 -10 -114 -4 -43 -8 -86 -10 -95 -1 -9 -6 -55 -10
-103 -3 -49 -8 -96 -9 -105 -2 -10 -7 -58 -10 -108 -4 -49 -9 -101 -11 -115
-2 -14 -7 -59 -11 -100 -3 -41 -8 -86 -9 -100 -1 -14 -6 -59 -9 -100 -4 -41
-9 -91 -11 -110 -2 -19 -7 -64 -10 -100 -14 -151 -16 -177 -30 -310 -3 -25 -7
-76 -11 -115 -3 -38 -8 -86 -10 -105 -2 -19 -6 -62 -9 -95 -9 -100 -16 -178
-20 -220 -2 -22 -7 -69 -10 -105 -3 -36 -8 -76 -10 -90 -2 -14 -6 -61 -10
-105 -3 -44 -8 -98 -10 -120 -4 -40 -9 -93 -20 -210 -4 -33 -8 -76 -10 -95 -3
-19 -7 -71 -10 -115 -4 -44 -8 -91 -10 -105 -2 -14 -7 -59 -10 -100 -3 -41 -8
-97 -10 -125 -3 -27 -8 -75 -11 -105 -2 -30 -7 -73 -9 -95 -2 -22 -7 -67 -10
-100 -3 -33 -8 -78 -10 -100 -2 -22 -7 -71 -10 -110 -3 -38 -8 -84 -10 -100
-2 -17 -7 -67 -10 -110 -3 -44 -7 -93 -10 -110 -2 -16 -7 -66 -10 -110 -4 -44
-8 -91 -10 -105 -2 -14 -7 -56 -10 -95 -3 -38 -8 -86 -10 -105 -2 -19 -7 -69
-10 -110 -4 -41 -8 -93 -11 -115 -2 -22 -6 -67 -9 -100 -3 -33 -7 -80 -10
-105 -2 -25 -7 -76 -10 -115 -4 -38 -8 -81 -10 -95 -2 -14 -7 -61 -10 -105 -4
-44 -8 -91 -10 -105 -2 -14 -7 -65 -10 -115 -4 -49 -9 -97 -10 -106 -2 -9 -6
-58 -10 -109 -4 -51 -9 -103 -11 -114 -2 -11 -6 -52 -9 -91 -3 -38 -7 -86 -10
-105 -3 -19 -7 -69 -11 -110 -3 -41 -7 -93 -10 -115 -2 -22 -6 -67 -9 -100 -3
-33 -7 -76 -10 -95 -2 -19 -7 -73 -11 -120 -3 -47 -8 -92 -9 -101 -2 -9 -6
-56 -10 -105 -3 -49 -8 -100 -10 -114 -2 -14 -7 -61 -11 -105 -3 -44 -8 -87
-9 -95 -2 -9 -6 -60 -10 -115 -4 -55 -9 -108 -10 -117 -2 -9 -7 -52 -10 -95
-4 -43 -8 -89 -10 -103 -2 -14 -7 -65 -11 -115 -3 -49 -8 -98 -10 -108 -1 -9
-6 -56 -9 -105 -4 -48 -8 -94 -10 -102 -2 -8 -6 -53 -10 -100 -3 -47 -8 -96
-10 -110 -2 -14 -7 -63 -10 -110 -4 -46 -9 -96 -10 -110 -2 -14 -6 -59 -10
-100 -8 -93 -12 -141 -19 -205 -3 -27 -8 -84 -11 -125 -4 -41 -8 -86 -10 -100
-2 -14 -7 -63 -10 -109 -4 -47 -8 -92 -10 -100 -1 -9 -6 -56 -10 -106 -4 -49
-8 -103 -10 -120 -2 -16 -6 -64 -10 -105 -3 -41 -8 -86 -10 -100 -2 -14 -7
-63 -11 -110 -3 -47 -8 -98 -9 -115 -2 -16 -6 -61 -9 -100 -4 -38 -8 -83 -10
-100 -2 -16 -7 -66 -11 -110 -3 -44 -8 -91 -10 -105 -2 -14 -7 -61 -10 -105
-3 -44 -8 -96 -10 -115 -6 -54 -15 -149 -20 -210 -2 -30 -7 -82 -10 -115 -3
-33 -8 -80 -10 -105 -2 -25 -7 -74 -10 -110 -7 -67 -9 -93 -20 -220 -4 -41 -8
-88 -10 -105 -3 -16 -7 -64 -10 -106 -3 -42 -7 -85 -9 -95 -2 -11 -7 -59 -10
-109 -4 -49 -9 -106 -11 -125 -3 -19 -7 -64 -10 -100 -3 -36 -7 -81 -10 -100
-2 -19 -7 -69 -10 -110 -4 -41 -8 -91 -10 -110 -2 -19 -6 -72 -10 -118 -4 -46
-8 -93 -10 -105 -2 -12 -6 -58 -10 -102 -3 -44 -8 -96 -10 -115 -7 -63 -14
-144 -20 -210 -3 -36 -8 -85 -10 -110 -2 -25 -7 -74 -10 -110 -3 -36 -8 -85
-10 -110 -7 -56 -13 -123 -20 -220 -3 -41 -8 -86 -10 -100 -2 -14 -6 -63 -10
-110 -4 -47 -8 -96 -10 -110 -2 -14 -6 -59 -10 -100 -3 -41 -8 -91 -10 -110
-2 -19 -7 -66 -10 -105 -5 -68 -11 -133 -20 -225 -2 -25 -7 -74 -10 -110 -3
-36 -8 -85 -10 -110 -3 -25 -7 -74 -10 -110 -6 -76 -12 -144 -20 -220 -3 -30
-8 -80 -10 -110 -3 -30 -7 -75 -9 -100 -3 -25 -8 -79 -11 -120 -4 -41 -8 -86
-10 -100 -2 -14 -6 -65 -10 -115 -3 -49 -8 -101 -10 -115 -2 -14 -6 -61 -10
-105 -3 -44 -8 -96 -10 -115 -2 -19 -7 -69 -10 -110 -3 -41 -8 -91 -10 -110
-2 -19 -7 -69 -10 -110 -3 -41 -8 -95 -10 -120 -5 -43 -7 -70 -20 -225 -3 -38
-8 -90 -10 -115 -7 -75 -17 -183 -20 -225 -1 -22 -6 -79 -10 -127 -7 -85 -7
-87 19 -103 58 -38 161 -30 426 32 58 14 114 26 125 29 11 2 90 20 175 39 85
20 165 38 176 41 12 2 221 51 465 109 244 58 455 108 469 111 14 3 71 16 127
29 228 55 321 77 628 150 176 41 356 84 400 95 206 50 752 182 772 186 21 4
347 82 458 109 33 9 69 17 80 20 11 2 76 18 145 35 69 16 134 32 145 34 47 11
171 41 520 126 116 28 217 53 225 55 8 2 35 8 60 14 25 7 55 14 67 16 18 4
219 53 456 111 9 2 25 6 35 8 9 2 94 23 187 46 94 23 178 43 188 45 10 3 27 7
37 10 10 3 27 7 37 10 10 2 122 29 248 60 127 31 237 58 245 60 8 1 119 29
245 60 127 31 241 59 255 61 14 3 32 7 40 10 8 3 26 8 40 11 14 2 57 13 95 23
39 10 81 21 95 23 30 6 340 83 390 97 19 5 215 55 435 109 408 102 694 177
701 184 22 22 37 1042 37 2472 0 1229 -9 1885 -28 1980 -2 11 -4 32 -4 46 -1
14 -7 33 -14 43 -13 18 -24 16 -218 -37 -269 -74 -508 -140 -819 -228 -140
-39 -284 -80 -320 -90 -128 -35 -526 -148 -555 -158 -62 -19 -181 -53 -545
-156 -206 -58 -431 -122 -500 -141 -126 -36 -622 -173 -650 -180 -8 -2 -57
-14 -108 -28 -51 -13 -101 -22 -111 -19 -30 8 -45 59 -45 157 0 83 9 251 19
351 2 22 7 76 10 120 6 79 10 134 20 238 3 28 7 86 10 127 7 93 15 194 20 240
2 19 7 73 10 120 4 47 8 101 10 120 2 19 6 73 10 120 4 47 8 101 10 120 2 19
6 73 9 120 4 47 9 101 11 120 3 19 7 67 10 105 3 39 7 90 10 115 5 45 10 111
20 245 3 39 8 86 10 105 3 19 7 69 10 110 3 41 8 93 10 115 2 22 7 74 10 115
3 41 7 93 10 115 2 22 7 76 10 120 4 44 8 96 10 115 2 19 6 73 10 120 4 47 8
99 10 115 1 17 6 66 10 110 4 44 9 94 10 110 2 17 6 68 10 115 3 47 8 96 10
110 2 14 7 63 11 110 3 47 7 101 9 120 2 19 6 71 10 115 4 44 8 94 10 110 2
17 6 66 10 110 3 44 8 96 10 115 3 19 7 67 10 105 3 39 8 90 10 115 2 25 7 81
11 125 3 44 8 94 10 110 1 17 6 64 9 105 4 41 8 92 10 112 2 20 7 72 10 115 4
43 9 96 11 118 7 60 14 133 19 200 3 33 7 83 9 110 3 28 8 82 11 120 3 39 7
86 9 105 2 19 7 71 11 115 3 44 8 94 10 110 2 17 7 64 10 105 3 41 7 89 9 105
2 17 7 71 11 120 3 50 8 101 10 115 2 14 6 59 10 100 6 82 12 153 19 215 3 22
8 76 11 120 4 44 8 96 10 115 2 19 7 69 10 110 3 41 8 91 10 110 2 19 7 67 10
105 3 39 8 81 10 95 3 14 7 63 10 110 3 47 8 101 10 120 2 19 7 69 11 110 3
41 7 86 9 100 1 14 6 63 10 110 4 47 9 99 11 115 1 17 5 67 9 113 3 45 8 91
10 102 2 11 7 59 10 108 4 48 8 89 10 92 2 3 6 46 10 95 4 50 8 104 10 120 1
17 6 64 9 105 7 71 9 95 20 200 3 25 8 70 10 100 9 93 16 161 26 255 5 50 12
119 15 155 4 36 11 94 16 130 5 36 9 70 9 77 0 12 151 115 295 202 39 23 124
76 190 116 276 169 1466 872 1575 931 19 10 36 22 38 27 2 4 7 7 12 7 6 0 196
108 280 159 76 47 408 237 417 239 7 2 13 8 13 13 0 5 4 9 8 9 7 0 126 66 182
101 49 30 222 129 227 129 2 0 24 14 48 30 24 17 46 30 49 30 2 0 44 23 93 51
48 28 106 61 128 74 22 12 123 71 225 130 434 252 510 295 519 295 5 0 11 3
13 8 3 6 64 43 218 130 19 11 62 35 95 54 33 19 161 93 285 165 124 71 317
183 430 248 227 131 372 214 440 253 25 14 74 42 109 64 34 21 64 38 66 38 2
0 43 23 92 51 48 28 102 59 118 69 17 9 314 180 660 380 347 200 763 440 925
533 162 93 360 207 439 253 79 46 147 84 151 84 36 0 35 -49 36 2597 0 1409 0
2563 0 2563 -1 -1 -37 -20 -81 -43z"/>
<path d="M23420 37453 c-11 -381 -24 -1338 -34 -2638 -14 -1653 -16 -1997 -21
-2895 -3 -520 -7 -1287 -10 -1705 -16 -2903 -26 -8182 -15 -8740 4 -210 6
-235 22 -235 6 0 24 -6 41 -14 34 -15 94 -37 337 -122 85 -30 185 -66 223 -80
207 -75 523 -184 532 -184 4 0 21 -6 38 -14 18 -8 79 -30 137 -49 58 -20 263
-90 455 -157 193 -67 359 -124 370 -127 11 -2 29 -9 40 -13 11 -5 54 -20 95
-34 41 -14 228 -77 415 -141 610 -209 1731 -585 1786 -598 24 -6 27 -4 33 26
34 190 41 1482 41 8671 l0 6579 -30 19 c-16 10 -37 21 -45 25 -8 4 -64 35
-123 70 -60 35 -127 74 -150 87 -65 36 -88 49 -492 283 -209 121 -396 229
-415 240 -55 31 -483 279 -521 302 -19 11 -40 24 -47 27 -8 4 -80 45 -160 92
-81 47 -165 95 -187 107 -22 13 -94 54 -160 92 -66 39 -140 81 -165 95 -25 14
-132 76 -238 137 -106 61 -207 120 -225 130 -17 10 -129 74 -247 141 -118 68
-228 131 -245 140 -273 154 -580 329 -618 351 -26 16 -50 29 -53 29 -3 0 -43
23 -90 50 -47 28 -86 50 -88 50 -3 0 -35 17 -73 39 -114 65 -110 66 -113 -36z"/>
<path d="M28779 34403 c-1 -16 -2 -48 -4 -73 -21 -320 -35 -2425 -35 -5235 1
-2762 12 -4017 35 -4055 8 -13 21 -210 24 -357 1 -63 16 -71 17 -10 1 23 4
141 8 262 9 293 13 461 21 825 3 168 8 404 10 525 3 121 7 380 10 575 18 1233
22 1399 40 1650 10 151 36 248 76 286 28 27 34 28 120 27 265 -5 469 -54 681
-165 94 -49 177 -119 179 -150 0 -7 2 -22 5 -33 3 -18 7 -74 19 -324 2 -46 9
-89 15 -95 6 -6 47 -11 93 -11 72 0 90 -4 152 -34 92 -44 202 -154 229 -226
30 -84 59 -137 85 -153 22 -15 34 -15 143 1 65 10 128 23 139 30 30 18 41 77
44 239 3 162 8 195 37 251 30 60 91 111 203 172 39 21 75 41 80 45 42 32 207
50 315 35 19 -2 58 -7 85 -11 135 -16 145 -18 184 -38 55 -29 91 -96 106 -196
4 -25 8 -56 10 -70 15 -97 19 -323 30 -1680 4 -448 8 -828 9 -845 1 -22 6 -30
21 -31 110 -6 217 -16 248 -23 20 -5 37 -7 37 -5 0 2 21 -6 47 -17 98 -42 128
-117 128 -319 0 -121 -10 -299 -19 -347 -2 -10 -7 -58 -11 -108 -3 -49 -8
-106 -10 -125 -10 -92 -23 -286 -40 -575 -10 -171 -28 -203 -107 -192 -50 7
-78 39 -107 122 -40 114 -111 185 -184 185 -60 0 -89 -72 -60 -155 16 -46 36
-72 80 -103 17 -12 41 -37 52 -55 20 -33 24 -56 36 -201 9 -117 48 -161 83
-95 9 18 29 46 44 61 22 24 35 28 78 28 45 0 56 -4 85 -33 18 -18 39 -53 46
-78 14 -50 15 -291 4 -774 -8 -383 -9 -1637 -1 -1860 7 -175 9 -195 28 -281
20 -96 -31 -156 -166 -194 -128 -36 -181 -76 -142 -106 11 -8 39 -14 61 -14
63 0 125 -37 153 -92 21 -42 27 -71 37 -185 2 -21 3 -41 4 -45 1 -5 7 -8 15
-8 21 0 57 103 63 180 3 36 14 94 25 130 40 137 44 164 53 420 15 397 20 1870
10 2785 -7 635 -19 1480 -31 2075 -9 522 -10 1138 -1 1255 14 196 49 294 125
353 50 39 286 180 336 202 52 22 78 32 91 36 85 22 140 30 189 28 125 -7 212
-50 326 -159 107 -103 127 -107 365 -90 198 14 244 11 310 -21 70 -33 93 -111
100 -344 2 -91 10 -178 16 -195 33 -84 89 -103 314 -110 206 -6 234 -10 283
-43 22 -15 31 -78 38 -287 14 -400 6 -1305 -12 -1415 -3 -19 -10 -43 -15 -53
-15 -26 -77 -48 -154 -53 -110 -7 -150 -17 -159 -40 -9 -23 50 -43 143 -49
106 -6 159 -28 177 -71 30 -72 36 -686 9 -892 -32 -246 -39 -261 -133 -269
-61 -6 -102 -28 -102 -57 0 -22 43 -54 90 -66 143 -37 163 -84 164 -387 l1
-143 30 -1 c52 -1 198 -9 260 -14 33 -3 171 -8 306 -11 235 -7 247 -6 257 12
15 30 22 97 27 259 12 393 16 406 160 516 115 88 255 146 372 155 92 6 135 13
205 35 165 52 203 160 202 579 -1 168 -11 463 -19 550 -2 19 -6 80 -10 135 -6
102 -10 154 -20 280 -3 39 -7 99 -10 135 -4 60 -8 107 -20 245 -2 28 -7 88
-10 135 -3 47 -8 101 -10 120 -6 45 -12 115 -20 215 -3 44 -8 98 -10 120 -2
22 -7 72 -10 110 -3 39 -8 88 -10 110 -2 22 -7 72 -10 110 -3 39 -8 90 -10
115 -14 150 -16 178 -20 210 -2 19 -7 71 -10 115 -9 106 -13 154 -30 325 -2
25 -7 77 -10 115 -6 77 -14 158 -20 220 -2 22 -7 69 -10 105 -10 110 -19 203
-30 315 -2 22 -7 72 -10 110 -3 39 -8 84 -10 100 -2 17 -7 71 -11 120 -3 50
-8 98 -10 108 -1 10 -6 53 -9 95 -3 42 -8 91 -10 107 -2 17 -6 56 -9 88 -3 31
-9 83 -12 115 -3 31 -7 71 -10 87 -2 17 -6 57 -9 90 -2 33 -7 83 -10 110 -12
123 -16 162 -20 190 -3 17 -7 57 -10 90 -7 73 -13 129 -21 193 -3 26 -8 61 -9
79 -2 17 -6 49 -9 70 -3 21 -8 65 -12 98 -3 33 -8 69 -10 80 -3 11 -7 38 -10
60 -9 68 -11 79 -18 120 -16 87 -11 83 -304 258 -327 195 -691 407 -698 407
-3 0 -25 14 -49 30 -24 17 -46 30 -48 30 -2 0 -54 29 -115 64 -61 36 -131 76
-154 89 -24 13 -144 82 -268 154 -124 71 -349 200 -500 287 -151 86 -282 161
-290 166 -13 8 -232 133 -315 180 -16 9 -95 54 -175 100 -303 173 -356 204
-385 220 -16 9 -192 109 -390 222 -198 113 -495 281 -660 375 -165 94 -399
227 -520 296 -121 68 -240 136 -265 150 -25 14 -89 50 -144 81 -54 31 -100 56
-102 56 -2 0 -33 18 -69 40 -36 22 -67 40 -69 40 -2 0 -77 42 -167 93 -90 51
-189 107 -219 124 -30 16 -179 100 -330 185 -151 85 -295 166 -320 180 -25 14
-61 34 -80 45 -193 110 -737 407 -821 450 -58 29 -59 29 -60 -4z m1838 -2215
c52 -109 76 -308 45 -368 -22 -44 -45 -58 -66 -41 -26 22 -39 90 -39 216 -1
168 28 261 60 193z m-4 -1360 c38 -57 108 -140 193 -228 29 -30 62 -67 74 -82
23 -30 69 -126 75 -157 2 -12 6 -24 8 -29 4 -6 12 -63 23 -172 13 -120 5 -803
-10 -880 -14 -72 -20 -91 -37 -106 -19 -17 -21 -16 -61 12 -58 40 -105 105
-123 168 -18 61 -22 129 -26 381 -2 176 -14 270 -38 299 -19 23 -63 2 -125
-60 -80 -80 -94 -131 -101 -358 -3 -123 -10 -203 -20 -256 -10 -48 -44 -100
-65 -100 -29 0 -43 204 -44 620 0 302 7 474 23 528 5 18 10 36 10 40 3 22 16
51 37 78 39 53 102 180 119 241 22 78 36 113 45 113 5 0 24 -24 43 -52z m-125
-1855 c13 -27 6 -63 -23 -134 -97 -231 -213 -259 -216 -52 -1 87 24 129 101
168 73 38 125 44 138 18z m303 -57 c120 -53 230 -139 242 -187 8 -33 -8 -83
-41 -128 -23 -31 -28 -33 -71 -28 -44 5 -48 3 -86 -39 -23 -24 -45 -44 -51
-44 -19 0 -92 85 -116 135 -54 110 -82 293 -48 316 23 16 109 3 171 -25z"/>
<path d="M30595 30498 c-33 -15 -75 -83 -75 -120 0 -46 43 -108 93 -135 26
-13 31 -13 48 3 16 15 18 28 15 103 -5 120 -33 171 -81 149z"/>
<path d="M29178 28499 c-33 -12 -68 -66 -68 -103 0 -15 7 -40 14 -55 19 -36
82 -91 104 -91 44 0 152 112 152 157 0 67 -122 122 -202 92z"/>
<path d="M29614 28105 c-8 -20 -17 -57 -21 -83 -6 -52 -40 -122 -59 -122 -24
0 -55 -36 -59 -67 -3 -18 -8 -48 -11 -65 -3 -18 -7 -315 -10 -659 l-4 -626
198 2 c212 2 256 7 314 36 61 31 73 65 73 204 -1 153 -21 355 -39 372 -4 4
-23 -1 -42 -12 -44 -24 -87 -93 -79 -128 11 -42 -20 -41 -39 1 -22 52 -60 240
-81 402 -3 25 -7 61 -10 80 -10 78 -15 118 -20 180 -3 35 -8 78 -10 95 -2 16
-7 84 -10 150 -6 128 -9 144 -31 217 -20 61 -41 69 -60 23z"/>
<path d="M31101 27701 c-16 -16 -28 -62 -36 -141 -7 -68 -15 -174 -20 -250
-17 -256 -38 -365 -71 -365 -15 0 -20 8 -22 40 -4 62 -23 123 -40 130 -8 3
-16 4 -18 2 -17 -16 -28 -156 -28 -352 0 -209 1 -234 19 -269 11 -23 29 -41
40 -43 28 -5 166 -4 190 1 11 2 34 5 50 5 l30 1 4 213 c7 379 6 800 -2 872
-17 157 -47 205 -96 156z"/>
<path d="M33840 27052 c-61 -5 -134 -22 -158 -38 -22 -15 -23 -17 -7 -34 38
-42 222 -78 410 -80 90 -2 126 8 149 41 19 28 8 45 -49 70 -48 21 -78 27 -170
35 -106 8 -137 9 -175 6z"/>
<path d="M34083 25356 c-35 -16 -56 -65 -43 -101 21 -59 168 -65 201 -8 22 38
8 76 -36 97 -50 24 -86 28 -122 12z"/>
<path d="M31296 25111 c-18 -45 -20 -58 -40 -196 -32 -215 -41 -726 -41 -2330
0 -1322 1 -1438 16 -1467 5 -9 26 -20 47 -24 20 -4 46 -8 57 -11 26 -5 285 -4
293 1 9 5 6 2385 -2 2881 -10 559 -15 610 -81 755 -48 107 -65 160 -65 207 0
86 -88 223 -142 223 -21 0 -29 -8 -42 -39z"/>
<path d="M30219 24856 c-2 -2 -42 -6 -89 -9 -136 -10 -199 -36 -171 -71 11
-14 27 -19 88 -31 134 -25 700 -21 771 6 92 35 -190 93 -477 98 -58 1 -108 4
-111 6 -4 3 -9 3 -11 1z"/>
<path d="M33231 24441 c-26 -26 -51 -112 -51 -172 0 -38 4 -51 20 -59 49 -26
196 -18 227 13 14 13 13 20 -8 63 -29 57 -101 139 -140 160 -26 13 -30 13 -48
-5z"/>
<path d="M34341 24008 c-42 -11 -151 -119 -151 -149 0 -42 125 -68 174 -35 48
31 72 89 57 142 -10 39 -38 54 -80 42z"/>
<path d="M33007 23830 c-53 -10 -65 -24 -36 -43 37 -24 125 -36 229 -32 151 5
216 36 138 65 -38 14 -276 21 -331 10z"/>
<path d="M33832 23734 c-43 -30 8 -106 72 -106 79 0 117 66 57 97 -41 21 -106
26 -129 9z"/>
<path d="M32092 23194 c-29 -20 -28 -55 4 -84 21 -21 27 -22 34 -10 14 22 12
86 -3 98 -10 9 -19 7 -35 -4z"/>
<path d="M36782 22917 c-68 -70 -101 -218 -56 -252 52 -39 129 9 153 97 16 55
20 148 9 171 -15 30 -69 22 -106 -16z"/>
<path d="M33073 22849 c-15 -15 -5 -47 19 -60 25 -13 60 -2 56 19 -4 23 -61
55 -75 41z"/>
<path d="M36104 22566 c-53 -53 -43 -108 14 -83 27 12 60 73 54 100 -6 26 -31
20 -68 -17z"/>
<path d="M36279 22336 c-2 -2 -40 -6 -84 -9 -101 -8 -146 -21 -172 -49 -31
-35 -34 -54 -12 -82 26 -34 81 -50 159 -46 175 7 188 5 217 -22 66 -63 155
-65 221 -5 30 27 28 53 -5 74 -35 22 -52 43 -53 64 0 38 -74 64 -191 68 -34 1
-66 4 -70 6 -3 3 -8 3 -10 1z"/>
<path d="M33493 22153 c-30 -6 -63 -49 -63 -83 0 -39 41 -74 85 -72 67 3 123
51 113 100 -7 34 -81 64 -135 55z"/>
<path d="M32776 21999 c-31 -24 -24 -54 18 -76 25 -13 64 -17 201 -17 179 -1
249 7 242 27 -4 15 -89 44 -153 53 -27 3 -52 8 -55 10 -3 2 -39 6 -80 9 -41 4
-91 8 -112 10 -25 2 -45 -3 -61 -16z"/>
<path d="M34714 21835 c-136 -40 -97 -106 65 -107 130 -2 166 33 100 95 -26
23 -38 28 -78 26 -27 -1 -66 -8 -87 -14z"/>
<path d="M35029 21742 c-6 -44 -10 -152 -12 -317 -2 -181 0 -203 17 -227 10
-16 24 -28 31 -28 6 0 20 -9 30 -20 20 -22 22 -61 10 -159 l-8 -63 34 7 c81
17 137 66 193 170 37 68 71 91 139 94 29 2 18 24 -29 60 -77 58 -94 109 -99
307 -4 142 -12 161 -70 169 -65 9 -235 14 -236 7z"/>
<path d="M34280 21354 c-11 -13 -10 -19 11 -39 39 -37 65 -40 85 -10 16 24 16
27 -1 45 -22 24 -77 27 -95 4z"/>
<path d="M33455 20918 c-29 -16 -35 -28 -35 -69 0 -46 16 -53 78 -33 80 27
113 71 75 100 -22 16 -91 17 -118 2z"/>
<path d="M22780 20649 c-36 -11 -74 -21 -84 -24 -41 -10 -1138 -371 -1171
-385 -11 -5 -87 -31 -170 -59 -82 -27 -276 -93 -430 -147 -154 -53 -312 -107
-350 -119 -39 -13 -88 -30 -110 -38 -42 -16 -186 -66 -400 -140 -71 -25 -287
-100 -480 -167 -192 -67 -370 -128 -395 -137 -25 -8 -54 -19 -65 -23 -11 -5
-103 -37 -205 -71 -102 -34 -191 -67 -197 -72 -7 -5 -13 -7 -13 -3 0 3 -17 -1
-37 -9 -21 -9 -78 -30 -128 -47 -49 -16 -119 -41 -155 -55 -36 -13 -66 -24
-67 -24 -2 0 -8 -2 -15 -4 -7 -3 -112 -39 -233 -80 -121 -42 -223 -79 -228
-84 -15 -15 -28 -4529 -14 -4831 11 -237 23 -304 60 -340 21 -21 225 -139 417
-242 47 -25 126 -68 175 -95 50 -28 122 -67 160 -88 39 -21 84 -46 100 -55 17
-10 68 -38 115 -63 47 -24 159 -85 250 -134 268 -146 301 -164 380 -205 41
-22 98 -52 125 -68 28 -15 91 -49 140 -75 50 -26 113 -60 140 -75 28 -15 100
-53 160 -85 61 -32 115 -61 120 -65 6 -4 73 -40 150 -80 77 -40 154 -81 170
-90 17 -10 89 -48 160 -85 72 -37 135 -71 140 -75 6 -4 82 -44 170 -90 88 -46
165 -86 170 -90 6 -4 69 -38 140 -75 72 -37 162 -85 200 -105 88 -46 262 -138
425 -222 69 -36 188 -98 265 -138 77 -40 261 -134 408 -208 l268 -134 47 18
c44 16 837 413 947 474 28 15 140 74 250 131 264 136 479 248 705 367 69 36
197 103 285 149 88 46 168 88 178 94 39 22 148 79 272 144 122 64 166 87 348
184 39 21 122 64 182 96 217 114 560 295 690 365 39 21 115 61 170 90 55 29
132 69 170 90 39 21 120 63 180 95 227 119 301 158 340 180 22 12 108 57 190
100 83 43 157 83 166 89 13 10 15 84 19 626 11 1895 4 4230 -13 4450 -2 21
-15 29 -92 60 -92 37 -283 108 -500 185 -66 24 -147 52 -180 64 -33 12 -114
40 -180 63 -66 22 -131 45 -145 51 -14 6 -29 11 -35 13 -5 1 -75 26 -155 54
-80 28 -163 57 -185 65 -39 13 -91 30 -565 195 -289 100 -557 192 -670 230
-47 16 -231 78 -410 140 -357 122 -707 240 -730 246 -8 2 -204 67 -435 145
-367 123 -831 271 -838 268 -1 -1 -31 -10 -67 -20z m128 -2611 c31 -17 71 -39
87 -48 17 -9 89 -47 160 -85 72 -37 134 -72 140 -77 5 -5 10 -102 11 -231 8
-824 15 -1845 17 -2196 l2 -415 -95 -74 c-129 -101 -281 -200 -342 -224 l-50
-19 -61 32 c-71 36 -143 89 -279 206 l-97 83 1 1428 0 1428 91 46 c51 25 99
48 107 52 8 4 67 33 130 66 63 33 116 59 118 60 2 0 29 -14 60 -32z"/>
<path d="M34680 19947 c-42 -14 -66 -55 -46 -75 7 -8 31 -18 52 -23 42 -10
189 -12 239 -4 17 3 45 8 63 11 46 7 82 25 82 39 0 14 -59 40 -110 50 -67 13
-244 14 -280 2z"/>
<path d="M36085 19933 c-140 -25 -167 -39 -122 -65 33 -19 399 -17 450 3 48
17 51 30 13 48 -28 13 -287 24 -341 14z"/>
<path d="M33255 19594 c-24 -25 -4 -73 32 -74 18 0 43 29 43 50 0 18 -27 40
-49 40 -5 0 -17 -7 -26 -16z"/>
<path d="M36385 19370 c-72 -6 -85 -13 -85 -46 0 -37 42 -48 230 -59 90 -6
489 -6 580 -1 72 4 173 16 179 21 16 16 -66 36 -204 49 -22 3 -62 7 -90 10
-86 9 -175 15 -315 22 -212 9 -231 9 -295 4z"/>
<path d="M28826 18553 c-23 -147 -28 -512 -33 -2565 -5 -1868 -4 -1926 13
-1932 26 -8 373 -95 398 -100 12 -3 104 -25 206 -51 102 -25 194 -48 206 -51
11 -2 93 -22 182 -44 89 -22 217 -53 284 -69 68 -17 218 -53 333 -80 116 -28
221 -54 235 -58 14 -3 30 -7 37 -9 7 -1 106 -25 220 -53 604 -148 1007 -247
1173 -286 102 -25 201 -49 220 -54 32 -10 356 -89 390 -96 8 -2 153 -37 322
-79 169 -41 318 -78 330 -81 13 -2 77 -18 143 -35 66 -16 129 -32 140 -34 11
-3 74 -18 140 -35 66 -16 251 -62 410 -100 160 -39 301 -74 315 -78 14 -3 30
-7 35 -9 6 -1 114 -28 240 -59 127 -31 237 -58 245 -60 8 -2 116 -29 240 -59
124 -31 234 -58 245 -60 11 -2 38 -9 60 -15 66 -18 977 -236 1180 -282 76 -17
203 -46 235 -54 8 -2 110 -24 225 -49 116 -26 230 -51 255 -57 25 -5 55 -11
68 -14 13 -2 31 -6 40 -9 9 -3 35 -7 57 -11 22 -3 47 -8 56 -11 31 -9 286 -20
294 -12 3 2 -2 67 -10 144 -7 76 -17 171 -20 209 -11 123 -15 159 -20 213 -3
28 -7 76 -10 105 -8 89 -16 170 -20 212 -2 22 -6 74 -10 115 -3 41 -8 91 -10
110 -2 19 -7 69 -10 110 -3 41 -8 91 -10 110 -3 19 -7 64 -10 100 -3 36 -7 85
-10 110 -2 25 -7 72 -10 105 -3 33 -8 83 -10 110 -2 28 -6 77 -10 110 -3 33
-8 85 -11 115 -2 30 -6 75 -9 100 -4 44 -13 138 -21 230 -2 25 -6 74 -9 110
-3 36 -7 79 -10 96 -2 17 -6 68 -10 115 -3 46 -8 95 -10 109 -3 23 -9 81 -20
220 -3 30 -8 82 -11 115 -11 105 -13 119 -18 190 -4 39 -8 79 -10 90 -2 11 -7
56 -11 100 -4 44 -8 94 -10 110 -2 17 -6 57 -10 90 -3 33 -8 71 -10 85 -2 14
-6 48 -10 75 -12 105 -16 132 -27 185 -6 30 -12 60 -13 65 -1 6 -6 24 -10 41
-9 39 -44 83 -70 89 -11 3 -139 41 -285 85 -146 45 -272 83 -281 85 -9 2 -63
18 -120 35 -57 18 -120 36 -139 40 -19 4 -48 12 -65 18 -16 5 -55 17 -85 26
-30 9 -77 23 -105 32 -27 9 -57 17 -65 19 -8 2 -170 49 -360 105 -190 55 -354
103 -364 105 -11 3 -40 11 -65 19 -25 9 -86 27 -136 40 -49 14 -191 55 -315
91 -124 36 -232 68 -240 70 -20 5 -70 20 -360 105 -135 39 -252 73 -260 75
-28 7 -435 126 -465 135 -16 6 -86 26 -155 46 -69 19 -280 80 -470 135 -190
56 -358 105 -375 109 -65 18 -322 92 -555 160 -135 39 -252 73 -260 75 -8 2
-103 29 -210 60 -107 32 -224 65 -260 75 -162 46 -318 91 -345 99 -33 11 -443
129 -490 142 -16 4 -86 24 -155 44 -150 44 -109 32 -425 122 -143 41 -282 81
-310 88 -27 8 -138 39 -245 70 -107 32 -217 63 -245 70 -27 7 -131 36 -230 64
-99 28 -187 51 -197 51 -11 0 -18 -12 -22 -37z"/>
</g>
</svg>
